<svg width="27" height="28" viewBox="0 0 27 28" fill="none" xmlns="http://www.w3.org/2000/svg">
<path d="M9.27092 0.917966C5.91634 2.06701 3.0553 4.58102 1.4667 7.75052C0.911455 8.84558 0.510447 10.01 0.271385 11.2131C-0.337838 14.2052 0.0863047 17.3901 1.4667 20.1201C2.36125 21.9015 3.6491 23.4824 5.20686 24.7162C6.67979 25.8884 8.39179 26.7521 10.2117 27.2379C12.5021 27.8549 14.9467 27.8395 17.2602 27.3151C19.3501 26.8369 21.3243 25.8344 22.8975 24.3846C24.5632 22.85 25.7508 20.8372 26.3831 18.6703C27.0695 16.3028 27.162 13.7811 26.7302 11.3596C22.4116 11.3596 18.0931 11.3596 13.7668 11.3596C13.7668 13.1487 13.7668 14.9455 13.7668 16.7346C16.2654 16.7346 18.7717 16.7346 21.2703 16.7346C20.9773 18.4543 19.9593 20.0198 18.5095 20.9915C17.5995 21.6007 16.5585 22.0017 15.4788 22.1868C14.3915 22.3719 13.2733 22.395 12.1936 22.1791C11.0909 21.9632 10.0421 21.5005 9.1244 20.8527C7.65918 19.827 6.54098 18.3155 5.97032 16.6267C5.38423 14.907 5.37652 12.9868 5.97032 11.267C6.37904 10.0563 7.06538 8.93041 7.96765 8.02043C9.07813 6.8791 10.5202 6.06937 12.078 5.73777C13.4121 5.45244 14.8156 5.50642 16.1189 5.89971C17.2294 6.23903 18.2473 6.84054 19.0879 7.64255C19.9362 6.80198 20.7768 5.9537 21.625 5.11312C22.0646 4.65813 22.535 4.22628 22.9669 3.75587C21.6867 2.56827 20.1752 1.61202 18.5327 1.01051C15.5868 -0.0922644 12.2476 -0.1154 9.27092 0.917966Z" fill="white"/>
<path d="M9.27098 0.917879C12.2477 -0.115486 15.5869 -0.0923508 18.5481 1.00271C20.1907 1.60422 21.6945 2.56047 22.9824 3.74807C22.5505 4.21077 22.0878 4.65033 21.6405 5.10532C20.7922 5.9459 19.9517 6.79418 19.1034 7.63476C18.2628 6.83274 17.2449 6.22352 16.1344 5.89191C14.8311 5.49862 13.4276 5.44464 12.0935 5.72997C10.5357 6.06157 9.09361 6.87901 7.98313 8.01263C7.08087 8.92261 6.39453 10.0485 5.98581 11.2592C4.48203 10.0948 2.97825 8.92261 1.47447 7.75814C3.05537 4.58093 5.9164 2.06692 9.27098 0.917879Z" fill="#E94435"/>
<path d="M0.271385 11.2129C0.510447 10.0099 0.919167 8.84543 1.4667 7.75037C2.97047 8.91483 4.47425 10.087 5.97803 11.2515C5.38423 12.9712 5.39194 14.8914 5.97803 16.6111C4.47425 17.7756 2.97047 18.9477 1.4667 20.1122C0.0863047 17.3977 -0.337838 14.205 0.271385 11.2129Z" fill="#F8BB15"/>
<path d="M13.7746 11.3518C18.0931 11.3518 22.4117 11.3518 26.7379 11.3518C27.1698 13.7733 27.0773 16.295 26.3909 18.6625C25.7586 20.8295 24.571 22.8499 22.9052 24.3768C21.4477 23.2432 19.9825 22.1096 18.5327 20.976C19.9825 20.012 21.0004 18.4388 21.2935 16.7191C18.7949 16.7191 16.2886 16.7191 13.79 16.7191C13.7669 14.9377 13.7746 13.1486 13.7746 11.3518Z" fill="#547DBE"/>
<path d="M1.46667 20.12C2.97045 18.9555 4.47423 17.7834 5.97801 16.6189C6.54867 18.3155 7.66687 19.8192 9.13209 20.8449C10.0498 21.4927 11.0986 21.9477 12.2013 22.1713C13.281 22.3872 14.4069 22.3641 15.4865 22.179C16.5662 21.9939 17.6072 21.5929 18.5172 20.9837C19.9747 22.1173 21.4399 23.2509 22.8897 24.3846C21.3165 25.8421 19.3424 26.8369 17.2525 27.315C14.9467 27.8394 12.5021 27.8548 10.204 27.2379C8.38406 26.752 6.67206 25.8883 5.19913 24.7162C3.64908 23.4746 2.36123 21.8937 1.46667 20.12Z" fill="#34A751"/>
</svg>
